<svg width="74" height="90" viewBox="0 0 74 90" fill="none" xmlns="http://www.w3.org/2000/svg">
<path d="M70.4933 47.1432V59.1706C72.6028 57.9238 73.8394 55.6031 73.697 53.1573C73.8394 50.7107 72.6028 48.39 70.4933 47.1432Z" fill="#FBFBFB"/>
<path d="M6.41858 37.7182V59.5648C6.41858 76.3734 20.0446 90.0003 36.8541 90.0003C53.6627 90.0003 67.2896 76.3734 67.2896 59.5648V37.7182C59.1058 41.8817 37.9608 41.9442 36.8541 41.9442C35.7473 41.9442 14.6023 41.8817 6.41858 37.7182ZM30.3981 53.5445C30.3199 53.8573 28.4247 61.1666 22.4373 61.1666C16.449 61.1666 14.5546 53.8573 14.4756 53.5445C14.2605 52.6864 14.7815 51.8159 15.6395 51.6008C16.4975 51.3857 17.3681 51.9066 17.5832 52.7647C17.5965 52.8155 18.9512 57.9629 22.4373 57.9629C25.9226 57.9629 27.2781 52.8155 27.2906 52.7647C27.5065 51.9066 28.3762 51.3857 29.235 51.6008C30.0931 51.8159 30.614 52.6864 30.3981 53.5445ZM44.4739 51.6031C45.3312 51.3881 46.2009 51.9074 46.4168 52.7647C46.4301 52.8155 47.7848 57.9629 51.2709 57.9629C54.7562 57.9629 56.1117 52.8155 56.1242 52.7647C56.3401 51.9066 57.2099 51.3857 58.0687 51.6008C58.9267 51.8159 59.4476 52.6864 59.2317 53.5445C59.1535 53.8573 57.2583 61.1666 51.2709 61.1666C45.2827 61.1666 43.3883 53.8573 43.3093 53.5445C43.0957 52.6872 43.6167 51.8182 44.4739 51.6031ZM38.4075 56.7482L35.8529 66.975L39.6683 66.0137C40.524 65.8056 41.3867 66.3274 41.6002 67.1807C41.8146 68.0348 41.2991 68.9014 40.4473 69.1212L34.0399 70.7231C33.4931 70.86 32.9159 70.6996 32.5178 70.3015C32.1204 69.9042 31.9601 69.3269 32.0962 68.7818L35.2999 55.9668C35.4274 55.3998 35.8521 54.9461 36.4098 54.7819C36.9675 54.6176 37.5698 54.7678 37.9851 55.1745C38.3996 55.582 38.5615 56.1819 38.4075 56.742V56.7482Z" fill="#FBFBFB"/>
<path d="M39.1301 29.1528C38.3754 31.5063 35.9397 32.8852 33.533 32.3213C33.084 33.9693 31.7903 35.2529 30.1384 35.6885C28.4873 36.125 26.7282 35.6471 25.5236 34.4363L21.0129 29.9302V29.9811C9.99225 31.263 6.71968 33.3452 6.41229 33.999V34.0327C7.17646 35.6346 17.9453 38.7468 36.8478 38.7468C55.8074 38.7468 66.5864 35.6166 67.2942 33.8645C66.6231 32.333 56.6623 29.3921 39.1301 29.1528Z" fill="#FBFBFB"/>
<path d="M27.7919 32.1727C28.4247 32.7796 29.4235 32.7796 30.0555 32.1727C30.6812 31.547 30.6812 30.5333 30.0555 29.9075L26.6578 26.5098L23.2593 23.1105C22.8588 22.6851 22.2589 22.5106 21.6926 22.6561C21.1263 22.8016 20.6844 23.2435 20.5397 23.8098C20.3942 24.3761 20.5694 24.976 20.9957 25.3757L27.7919 32.1727Z" fill="#FBFBFB"/>
<path d="M25.5252 20.8439L33.4548 28.7734C33.8568 29.1903 34.452 29.3577 35.0121 29.2114C35.5729 29.0652 36.0101 28.6279 36.1571 28.0679C36.3042 27.5079 36.1376 26.9127 35.7215 26.5098L26.6593 17.4469C26.2573 17.03 25.6621 16.8634 25.1021 17.0097C24.542 17.1567 24.1048 17.594 23.9578 18.154C23.8115 18.714 23.9781 19.3093 24.395 19.7113L25.5252 20.8439Z" fill="#FBFBFB"/>
<path d="M0.0110923 53.1573C-0.131261 55.6031 1.10534 57.9238 3.21483 59.1706V47.1432C1.10534 48.39 -0.131261 50.7107 0.0110923 53.1573Z" fill="#FBFBFB"/>
<path d="M49.3131 15.1818C49.9389 14.5561 49.9389 13.5424 49.3131 12.9166L48.1821 11.7841L44.7836 8.3848L40.2533 3.85451C39.8513 3.4384 39.2561 3.27102 38.6953 3.4165C38.1353 3.56277 37.698 4 37.551 4.56002C37.4039 5.12005 37.5705 5.71606 37.9866 6.11809L47.048 15.1818C47.6737 15.8067 48.6882 15.8067 49.3131 15.1818Z" fill="#FBFBFB"/>
<path d="M47.048 6.11964L50.4473 9.51892C51.073 10.1446 52.0875 10.1439 52.7132 9.51813C53.3389 8.8924 53.3381 7.87794 52.7124 7.25221L45.9154 0.455218C45.2827 -0.151739 44.2838 -0.151739 43.6511 0.455218C43.0253 1.08095 43.0253 2.09541 43.6511 2.72036L47.048 6.11964Z" fill="#FBFBFB"/>
<path d="M32.323 18.5787L39.12 11.7833L41.3851 14.0492L34.5881 20.8446L32.323 18.5787Z" fill="#FBFBFB"/>
</svg>
