<svg width="82" height="98" viewBox="0 0 82 98" fill="none" xmlns="http://www.w3.org/2000/svg">
<g filter="url(#filter0_d_6_1440)">
<path d="M26.687 59.8461C27.8215 60.4092 29.156 60.4017 30.2843 59.8255C33.9175 58.0879 37.9056 57.2232 41.9323 57.3001C45.9575 57.2232 49.9457 58.0879 53.5781 59.8255C54.7072 60.4024 56.043 60.4099 57.179 59.8461C58.4234 59.2087 59.2943 58.0213 59.5278 56.6422C59.7572 55.3483 59.4687 54.0152 58.7236 52.9322C58.1151 54.0599 57.179 54.976 56.0396 55.5605C55.142 56.0131 54.1509 56.2487 53.1462 56.2487C52.175 56.2459 51.2177 56.0261 50.3427 55.6058C47.7054 54.4012 44.8305 53.8071 41.9323 53.8676C39.0313 53.8051 36.1543 54.3985 33.515 55.6038C30.4554 57.1051 26.7563 55.9266 25.1293 52.9322C24.3759 54.007 24.0895 55.3407 24.3368 56.6298C24.5661 58.0137 25.4377 59.2073 26.687 59.8461V59.8461Z" fill="#FBFBFB"/>
<path d="M28.0734 52.6876C28.9718 53.1409 30.0294 53.1492 30.9346 52.7103C34.0066 51.2941 37.3588 50.5909 40.7406 50.6527C44.1223 50.5902 47.4745 51.2941 50.5458 52.7103C51.3693 53.1128 52.3246 53.1423 53.1714 52.7934C54.0182 52.4438 54.6748 51.7481 54.9742 50.8828C50.6434 48.4275 45.7156 47.2236 40.7406 47.4055C35.7627 47.2229 30.8329 48.4261 26.5 50.8828C26.7733 51.6643 27.3365 52.3106 28.0734 52.6876V52.6876Z" fill="#FBFBFB"/>
<path d="M4 40.9758C4.0103 56.3874 13.58 70.1753 28.0136 75.5769C29.589 74.3537 31.5636 73.7624 33.5518 73.9176L36.0916 64.6618C36.3264 63.806 37.2117 63.3026 38.0674 63.5375C38.9239 63.7731 39.4273 64.6577 39.1924 65.5141L36.6314 74.8372C37.5132 75.2912 38.3037 75.9045 38.9623 76.6455C39.5495 77.3117 39.4857 78.3275 38.8202 78.9147C38.154 79.5019 37.1382 79.438 36.551 78.7725C35.6348 77.7362 34.3176 77.1428 32.9344 77.1442C32.9083 77.1442 32.8863 77.1297 32.8602 77.1297C31.6288 77.1448 30.4503 77.6283 29.5636 78.4834C29.5423 78.5054 29.5197 78.5232 29.4991 78.5445C28.6056 79.4456 28.1063 80.6653 28.1125 81.9345C28.1179 83.2037 28.6275 84.4186 29.53 85.3114C30.0574 85.8293 30.6968 86.2187 31.3994 86.4494C31.5072 85.5134 31.7538 84.5986 32.1309 83.7346C32.4887 82.9262 33.433 82.5581 34.2434 82.9125C35.0538 83.2662 35.4267 84.2085 35.0772 85.0209C34.7221 85.8313 34.5394 86.7077 34.5415 87.593C34.5456 87.9837 34.5847 88.3738 34.6589 88.7584C34.672 88.8271 34.683 88.8978 34.6974 88.9672C35.2303 91.3751 37.0936 93.2658 39.4925 93.8345C39.5619 93.8503 39.6265 93.8798 39.6951 93.8942C40.0433 93.9581 40.3963 93.9938 40.75 94H41.1649C41.5275 93.9938 41.8894 93.9574 42.2466 93.8908C42.3235 93.875 42.3977 93.8407 42.4746 93.8235C44.8605 93.2466 46.7093 91.3614 47.2409 88.9652C47.2553 88.8978 47.2663 88.8292 47.2793 88.7598C47.3556 88.3752 47.3961 87.9844 47.4016 87.593C47.4037 86.7077 47.2217 85.8313 46.8666 85.0209C46.517 84.2085 46.8892 83.2662 47.6997 82.9125C48.5108 82.5581 49.4544 82.9262 49.8129 83.7346C50.1899 84.5986 50.4358 85.5134 50.5443 86.4494C51.2462 86.2187 51.8863 85.8293 52.4138 85.3114C53.321 84.4124 53.832 83.1879 53.832 81.9105C53.832 80.6324 53.321 79.4078 52.4138 78.5088C51.5244 77.6359 50.3321 77.1414 49.0863 77.1277C49.0588 77.1277 49.0361 77.1442 49.0094 77.1442C47.6248 77.1442 46.3075 77.7389 45.392 78.7773C45.0123 79.208 44.4312 79.403 43.8687 79.2897C43.3056 79.1764 42.8461 78.7705 42.6628 78.2265C42.4801 77.6819 42.6009 77.081 42.9807 76.6504C43.6352 75.9134 44.4202 75.3036 45.2959 74.8517L42.5968 65.5285C42.4292 64.9743 42.5721 64.3726 42.9718 63.9537C43.3708 63.5341 43.9649 63.3624 44.5267 63.5032C45.0885 63.644 45.5308 64.0766 45.6846 64.635L48.3658 73.9197C50.3589 73.7665 52.3382 74.3572 53.9213 75.5769C71.4447 69.0153 81.3001 50.3938 76.871 32.2145C72.4419 14.0352 55.1259 2.03286 36.5483 4.26698C17.9707 6.50042 3.99313 22.265 4 40.9758ZM48.929 13.6485C49.3548 13.6265 49.7731 13.7756 50.0897 14.062C50.4063 14.3483 50.5958 14.7494 50.6164 15.1759C50.8417 19.6929 57.4417 21.7327 57.5097 21.7533C58.2741 21.9827 58.7549 22.7382 58.6388 23.5273C58.5228 24.3171 57.8449 24.9022 57.0462 24.9008C56.8916 24.9002 56.7371 24.8782 56.5881 24.8349C56.2282 24.7278 47.747 22.1283 47.403 15.3366C47.381 14.9101 47.53 14.4933 47.8157 14.1766C48.1021 13.86 48.5025 13.6698 48.929 13.6485ZM46.1159 32.1348C46.3714 31.7935 46.7519 31.5682 47.1743 31.5078C47.5966 31.4473 48.0252 31.5572 48.3658 31.8134C51.3705 34.064 54.2221 34.9266 56.8518 34.3675C61.1518 33.4418 63.6469 28.9886 63.6723 28.944C64.1029 28.1761 65.0706 27.898 65.8432 28.319C66.6166 28.74 66.9064 29.7042 66.495 30.4824C66.3666 30.7152 63.3028 36.2514 57.5558 37.5034C56.7955 37.6717 56.0187 37.7582 55.2399 37.761C52.0147 37.6298 48.9221 36.4444 46.4373 34.3854C46.096 34.1292 45.8707 33.7487 45.8103 33.3264C45.7499 32.9047 45.8597 32.4754 46.1159 32.1348ZM58.8503 49.4556C61.1799 51.3079 62.287 54.3016 61.7239 57.2245L60.1443 56.9347L61.7239 57.2321C61.3084 59.6036 59.7954 61.6385 57.6444 62.7202C55.6066 63.7346 53.2091 63.725 51.1789 62.6941C47.9929 61.1832 44.4972 60.4367 40.9719 60.5149C37.4445 60.4387 33.9481 61.1873 30.7607 62.701C29.7484 63.2113 28.6303 63.4784 27.4964 63.4805C26.3859 63.4798 25.2911 63.2216 24.2973 62.7264C22.1463 61.6447 20.6333 59.6091 20.2178 57.2369C19.6533 54.3126 20.7604 51.3161 23.092 49.4618C26.21 47.0566 31.8431 44.1907 40.9719 44.1907C50.1007 44.1907 55.733 47.0566 58.8517 49.4618L58.8503 49.4556ZM24.4354 21.7533C24.5034 21.7327 31.1034 19.6929 31.3287 15.1759C31.3568 14.6018 31.6899 14.086 32.2016 13.8236C32.7132 13.5613 33.3265 13.5922 33.8094 13.904C34.2922 14.2165 34.5724 14.7625 34.5435 15.3366C34.2043 22.1283 25.7183 24.7278 25.3584 24.8349C25.208 24.8782 25.0528 24.9008 24.8969 24.9008C24.0989 24.9015 23.4217 24.3164 23.3063 23.5266C23.1902 22.7375 23.671 21.9827 24.4354 21.7533ZM16.093 28.3108C16.8718 27.8877 17.8463 28.1755 18.2708 28.9536C18.3127 29.0291 20.8057 33.4541 25.0899 34.3772C27.7182 34.9383 30.5732 34.0812 33.5759 31.823C34.0353 31.4782 34.6438 31.4047 35.172 31.6307C35.6994 31.856 36.0675 32.3463 36.1362 32.9164C36.2049 33.4871 35.9638 34.0502 35.5044 34.395C33.0189 36.4499 29.9269 37.6325 26.7039 37.761C25.9243 37.761 25.1476 37.6772 24.3859 37.5117C18.6389 36.2596 15.5751 30.7234 15.4467 30.4899C15.2434 30.1156 15.1967 29.6754 15.3183 29.2668C15.4391 28.8574 15.718 28.514 16.093 28.3108Z" fill="#FBFBFB"/>
</g>
<defs>
<filter id="filter0_d_6_1440" x="0" y="0" width="81.927" height="98" filterUnits="userSpaceOnUse" color-interpolation-filters="sRGB">
<feFlood flood-opacity="0" result="BackgroundImageFix"/>
<feColorMatrix in="SourceAlpha" type="matrix" values="0 0 0 0 0 0 0 0 0 0 0 0 0 0 0 0 0 0 127 0" result="hardAlpha"/>
<feOffset/>
<feGaussianBlur stdDeviation="2"/>
<feComposite in2="hardAlpha" operator="out"/>
<feColorMatrix type="matrix" values="0 0 0 0 1 0 0 0 0 1 0 0 0 0 1 0 0 0 0.2 0"/>
<feBlend mode="normal" in2="BackgroundImageFix" result="effect1_dropShadow_6_1440"/>
<feBlend mode="normal" in="SourceGraphic" in2="effect1_dropShadow_6_1440" result="shape"/>
</filter>
</defs>
</svg>
