<svg width="90" height="90" viewBox="0 0 99 98" fill="none" xmlns="http://www.w3.org/2000/svg">
<g filter="url(#filter0_d_5_705)">
<path d="M25.6669 53.1308C25.6669 54.8646 27.0769 56.2746 28.8107 56.2746V49.987C27.0769 49.987 25.6669 51.397 25.6669 53.1308Z" fill="#FBFBFB"/>
<path d="M42.6401 75.1217L43.489 77.0992L45.4508 75.1374H42.9577C42.8492 75.1374 42.7455 75.1232 42.6401 75.1217Z" fill="#FBFBFB"/>
<path d="M27.3457 27.9808H16.2357V23.1408L4.83001 31.1245L16.2357 39.1082V34.2683H23.1393C23.9143 31.7926 25.3934 29.6186 27.3457 27.9808Z" fill="#FBFBFB"/>
<path d="M48.5143 78.2811H49.9761L50.6804 77.2232L49.2451 75.7881L47.8084 77.2232L48.5143 78.2811Z" fill="#FBFBFB"/>
<path d="M53.0398 75.1374L55.0015 77.0992L55.8504 75.1217C55.7435 75.1248 55.6397 75.1374 55.5328 75.1374H53.0398Z" fill="#FBFBFB"/>
<path d="M46.1014 21.6932H52.3889V15.4057H57.2288L49.2451 4L41.26 15.4057H46.1014V21.6932Z" fill="#FBFBFB"/>
<path d="M66.5359 60.9903V48.8491L66.1681 48.236C64.0948 44.7826 60.8268 42.2109 57.0261 40.9928C56.6236 44.5265 54.6917 47.7221 51.6895 49.7231L50.6174 50.4383L49.7056 49.5265C45.8906 45.7115 40.8466 43.1902 35.5037 42.4263L34.1204 42.2282C32.7183 43.8803 31.9543 45.952 31.9543 48.1448V60.9903C31.9543 67.0563 36.89 71.9936 42.9575 71.9936H55.5326C61.6002 71.9936 66.5359 67.0563 66.5359 60.9903ZM39.8139 54.7028C38.0769 54.7028 36.6701 53.296 36.6701 51.559C36.6701 49.822 38.0769 48.4152 39.8139 48.4152C41.5509 48.4152 42.9577 49.822 42.9577 51.559C42.9575 53.2944 41.5491 54.7028 39.8139 54.7028ZM49.2451 67.2779C45.7727 67.2779 42.9575 64.4627 42.9575 60.9903H55.5326C55.5326 64.4627 52.7174 67.2779 49.2451 67.2779ZM58.6764 54.7028C56.9395 54.7028 55.5326 53.296 55.5326 51.559C55.5326 49.822 56.9395 48.4152 58.6764 48.4152C60.4134 48.4152 61.8202 49.822 61.8202 51.559C61.8202 53.2944 60.4118 54.7028 58.6764 54.7028Z" fill="#FBFBFB"/>
<path d="M55.8015 24.837H41.3857C37.9181 24.837 35.0981 27.657 35.0981 31.1246V39.1931L35.9502 39.3142C41.5052 40.1079 46.7726 42.5916 50.9271 46.3515C52.8465 44.6539 53.9608 42.2095 53.9608 39.6049V37.0679L55.8408 37.4436C59.9827 38.2704 63.7269 40.4161 66.5359 43.4954V43.4309C66.5359 40.9835 65.5833 38.6822 63.8527 36.9532L66.0754 34.7305C68.4001 37.0537 69.6797 40.1426 69.6797 43.4309V46.8451C70.5254 46.8451 71.3318 47.0179 72.069 47.323L72.4933 45.1977C72.7118 44.1006 72.8235 42.9767 72.8235 41.8606C72.8235 32.4733 65.1873 24.837 55.8015 24.837Z" fill="#FBFBFB"/>
<path d="M69.6797 49.987V56.2746C71.4135 56.2746 72.8235 54.8646 72.8235 53.1308C72.8235 51.397 71.4135 49.987 69.6797 49.987Z" fill="#FBFBFB"/>
<path d="M59.439 74.7256L56.0626 82.6055L52.9471 79.49L52.5353 80.1077L56.7024 93.9985H60.2486V84.5671H63.3924V93.9985H69.6815V92.4266C69.6813 85.0811 65.7721 78.3771 59.439 74.7256Z" fill="#FBFBFB"/>
<path d="M82.2549 39.1081L93.6605 31.1244L82.2549 23.1407V27.9806H70.395C72.1194 29.793 73.5137 31.9167 74.4725 34.2682H82.2549V39.1081Z" fill="#FBFBFB"/>
<path d="M48.8429 81.4248L45.0703 94H53.4202L49.6476 81.4248H48.8429Z" fill="#FBFBFB"/>
<path d="M31.9545 39.9521V31.1243C31.9545 30.2661 32.0803 29.4378 32.2956 28.647C28.413 30.1261 25.6669 33.9033 25.6669 38.2466C25.6669 38.6726 25.6936 39.0971 25.7456 39.5198L26.7091 47.2315C27.3692 46.9958 28.0703 46.8432 28.8107 46.8432H28.8814C29.1502 44.2733 30.2191 41.8856 31.9545 39.9521Z" fill="#FBFBFB"/>
<path d="M45.5418 79.4914L42.4263 82.6069L39.05 74.7286C32.7184 78.3785 28.8108 85.0827 28.8108 92.428V93.9999H35.0967V84.5685H38.2405V93.9999H41.7867L45.9538 80.1091L45.5418 79.4914Z" fill="#FBFBFB"/>
<path d="M94.4888 81.0837L92.2096 67.4052L88.5424 71.0723L80.6829 63.2129L76.618 67.2778L84.4774 75.1373L80.8103 78.8045L94.4888 81.0837Z" fill="#FBFBFB"/>
<path d="M17.8075 63.2129L9.94805 71.0723L6.28078 67.4052L4 81.0837L17.6801 78.8045L14.013 75.1373L21.8724 67.2778L17.8075 63.2129Z" fill="#FBFBFB"/>
</g>
<defs>
<filter id="filter0_d_5_705" x="0" y="0" width="98.4888" height="98" filterUnits="userSpaceOnUse" color-interpolation-filters="sRGB">
<feFlood flood-opacity="0" result="BackgroundImageFix"/>
<feColorMatrix in="SourceAlpha" type="matrix" values="0 0 0 0 0 0 0 0 0 0 0 0 0 0 0 0 0 0 127 0" result="hardAlpha"/>
<feOffset/>
<feGaussianBlur stdDeviation="2"/>
<feComposite in2="hardAlpha" operator="out"/>
<feColorMatrix type="matrix" values="0 0 0 0 1 0 0 0 0 1 0 0 0 0 1 0 0 0 0.2 0"/>
<feBlend mode="normal" in2="BackgroundImageFix" result="effect1_dropShadow_5_705"/>
<feBlend mode="normal" in="SourceGraphic" in2="effect1_dropShadow_5_705" result="shape"/>
</filter>
</defs>
</svg>
