<svg width="90" height="90" viewBox="0 0 87 90" fill="none" xmlns="http://www.w3.org/2000/svg">
<path d="M34.5 41.9999C35.841 41.9999 37.035 41.3984 37.86 40.4639C37.74 40.4774 37.623 40.4999 37.5 40.4999C35.8425 40.4999 34.5 39.1574 34.5 37.4999C34.5 35.8424 35.8425 34.4999 37.5 34.4999C37.623 34.4999 37.74 34.5224 37.86 34.5359C37.035 33.6014 35.841 32.9999 34.5 32.9999C32.019 32.9999 30 35.0189 30 37.4999C30 39.9809 32.019 41.9999 34.5 41.9999Z" fill="#FBFBFB"/>
<path d="M19.5 34.4999C19.623 34.4999 19.74 34.5224 19.86 34.5359C19.035 33.6014 17.841 32.9999 16.5 32.9999C14.019 32.9999 12 35.0189 12 37.4999C12 39.9809 14.019 41.9999 16.5 41.9999C17.841 41.9999 19.035 41.3984 19.86 40.4639C19.74 40.4774 19.623 40.4999 19.5 40.4999C17.8425 40.4999 16.5 39.1574 16.5 37.4999C16.5 35.8424 17.8425 34.4999 19.5 34.4999Z" fill="#FBFBFB"/>
<path d="M9.165 21.738L9.705 21.4935C9.252 20.418 9 19.239 9 18H12C12 21.309 14.691 24 18 24H37.5C42.828 24 47.232 27.993 47.9025 33.141C48.7665 33.306 49.566 33.6345 50.298 34.068C50.7585 30.681 51 27.2565 51 23.8515V10.5C51 9.672 50.328 9 49.5 9H20.3385C9.123 9 0 18.123 0 29.3385C0 30.675 0.1335 32.016 0.3945 33.327L0.5595 34.1475C1.3005 33.6855 2.1165 33.3315 3 33.1515V31.302C3 27.1905 5.4195 23.4375 9.165 21.738Z" fill="#FBFBFB"/>
<path d="M0 40.5C0 42.453 1.2585 44.103 3 44.724V36.2775C1.2585 36.897 0 38.547 0 40.5Z" fill="#FBFBFB"/>
<path d="M48 36.2761V44.7226C49.7415 44.1016 51 42.4516 51 40.4986C51 38.5456 49.7415 36.8971 48 36.2761Z" fill="#FBFBFB"/>
<path d="M32.25 63.7035C39.6945 63.7035 45.75 57.648 45.75 50.2035V35.2035C45.75 31.068 42.3855 27.7035 38.25 27.7035H18.75C16.113 27.7035 13.737 26.5635 12.09 24.75L11.1555 25.1745C8.478 26.388 6.75 29.0685 6.75 32.0055V50.2035C6.75 57.648 12.8055 63.7035 20.25 63.7035H32.25ZM35.25 30.7035C39.3855 30.7035 42.75 34.068 42.75 38.2035C42.75 42.339 39.3855 45.7035 35.25 45.7035C31.1145 45.7035 27.75 42.339 27.75 38.2035C27.75 34.068 31.1145 30.7035 35.25 30.7035ZM30.75 51.7035V56.2035C30.75 57.861 29.4075 59.2035 27.75 59.2035H24.75C23.0925 59.2035 21.75 57.861 21.75 56.2035V51.7035C21.75 49.218 23.7645 47.2035 26.25 47.2035C28.7355 47.2035 30.75 49.218 30.75 51.7035ZM9.75 38.2035C9.75 34.068 13.1145 30.7035 17.25 30.7035C21.3855 30.7035 24.75 34.068 24.75 38.2035C24.75 42.339 21.3855 45.7035 17.25 45.7035C13.1145 45.7035 9.75 42.339 9.75 38.2035Z" fill="#FBFBFB"/>
<path d="M46.719 59.9999C46.2315 59.9999 45.792 60.2714 45.573 60.7094L42.3255 67.2045L47.0175 71.8964C47.5875 71.6834 48 71.1449 48 70.4999V61.2809C48 60.5759 47.424 59.9999 46.719 59.9999Z" fill="#FBFBFB"/>
<path d="M24.621 66L31.5915 72.9705L39.2985 66.5475L41.142 62.862C38.4255 64.827 35.1015 66 31.5 66H24.621Z" fill="#FBFBFB"/>
<path d="M31.407 77.0296L21.492 67.1146C20.775 66.3961 19.8195 66.0001 18.8025 66.0001C16.707 66.0001 15 67.7071 15 69.8026C15 70.8196 15.396 71.7736 16.113 72.4921L25.023 81.4021C26.6745 83.0536 28.9605 84.0001 31.2945 84.0001C33.852 84.0001 36.285 82.8961 37.968 80.9715L44.4465 73.5676L40.4085 69.5296L31.407 77.0296Z" fill="#FBFBFB"/>
<path d="M22.9035 83.5245L15 75.621V90H36V86.0175C34.53 86.6535 32.934 87 31.2945 87C28.17 87 25.1115 85.7325 22.9035 83.5245Z" fill="#FBFBFB"/>
<path d="M45 86.9999H63.0015V89.9999H45V86.9999Z" fill="#FBFBFB"/>
<path d="M75 49.5001V48.0001H69V51.0001H74.8485C74.9475 50.5156 75 50.0131 75 49.5001Z" fill="#FBFBFB"/>
<path d="M69 56.8485C70.8195 56.478 72.3795 55.4295 73.461 54H69V56.8485Z" fill="#FBFBFB"/>
<path d="M78 12.0001H81V69.0001H78V12.0001Z" fill="#FBFBFB"/>
<path d="M63 45.0001H75V40.0846C74.5575 40.3411 74.049 40.5001 73.5 40.5001H70.5C68.8425 40.5001 67.5 39.1576 67.5 37.5001V34.5001C67.5 31.1866 70.1865 28.5001 73.5 28.5001C74.049 28.5001 74.5575 28.6591 75 28.9156V21.0001H73.5C67.7115 21.0001 63 25.7116 63 31.5001V33.2581C63 35.8471 62.121 38.3896 60.552 40.4311L63 42.8791V45.0001Z" fill="#FBFBFB"/>
<path d="M63 48.0001H66V51.0001H63V48.0001Z" fill="#FBFBFB"/>
<path d="M84 36V84H87V38.25L84 36Z" fill="#FBFBFB"/>
<path d="M63 54H66V57H63V54Z" fill="#FBFBFB"/>
<path d="M75 56.8335C73.092 58.785 70.437 60 67.5 60H63V61.5C63 62.328 63.672 63 64.5 63H75V56.8335Z" fill="#FBFBFB"/>
<path d="M72 86.9999H87V89.9999H72V86.9999Z" fill="#FBFBFB"/>
<path d="M57 0H60V9H57V0Z" fill="#FBFBFB"/>
<path d="M57 12.0001H60V15.0001H57V12.0001Z" fill="#FBFBFB"/>
<path d="M63 0H66V9H63V0Z" fill="#FBFBFB"/>
<path d="M63 12.0001H66V15.0001H63V12.0001Z" fill="#FBFBFB"/>
<path d="M69 0H72V9H69V0Z" fill="#FBFBFB"/>
<path d="M69 12.0001H72V15.0001H69V12.0001Z" fill="#FBFBFB"/>
</svg>
